<svg width="300" height="300" viewBox="0 0 300 300" fill="none" xmlns="http://www.w3.org/2000/svg">
<path d="M189.916 300H110.084C94.8832 300 80.4027 296.89 67.2323 291.269C54.0618 285.639 42.1914 277.508 32.2411 267.448C22.2807 257.387 14.2205 245.406 8.65031 232.115C3.08013 218.815 0 204.194 0 188.853V111.147C0 95.7964 3.08013 81.1754 8.65031 67.8845C14.2205 54.5836 22.2807 42.6029 32.2411 32.5522C42.2014 22.4915 54.0618 14.361 67.2323 8.73059C80.4027 3.10022 94.8832 0 110.084 0H189.916C205.117 0 219.597 3.11022 232.768 8.73059C245.938 14.361 257.809 22.4915 267.759 32.5522C277.719 42.6129 285.78 54.5936 291.35 67.8845C296.92 81.1854 300 95.8064 300 111.147V188.853C300 204.204 296.92 218.825 291.35 232.115C285.78 245.416 277.719 257.397 267.759 267.448C257.799 277.508 245.938 285.639 232.768 291.269C219.597 296.9 205.117 300 189.916 300Z" fill="#FF73FF"/>
<mask id="mask0_19080_41384" style="mask-type:luminance" maskUnits="userSpaceOnUse" x="0" y="0" width="300" height="300">
<path d="M189.916 300H110.084C94.8832 300 80.4027 296.89 67.2323 291.269C54.0618 285.639 42.1914 277.508 32.2411 267.448C22.2807 257.387 14.2205 245.406 8.65031 232.115C3.08013 218.815 0 204.194 0 188.853V111.147C0 95.7964 3.08013 81.1754 8.65031 67.8845C14.2205 54.5836 22.2807 42.6029 32.2411 32.5522C42.2014 22.4915 54.0618 14.361 67.2323 8.73059C80.4027 3.10022 94.8832 0 110.084 0H189.916C205.117 0 219.597 3.11022 232.768 8.73059C245.938 14.361 257.809 22.4915 267.759 32.5522C277.719 42.6129 285.78 54.5936 291.35 67.8845C296.92 81.1854 300 95.8064 300 111.147V188.853C300 204.204 296.92 218.825 291.35 232.115C285.78 245.416 277.719 257.397 267.759 267.448C257.799 277.508 245.938 285.639 232.768 291.269C219.597 296.9 205.117 300 189.916 300Z" fill="white"/>
</mask>
<g mask="url(#mask0_19080_41384)">
<path d="M305.962 105.527C303.272 105.707 300.532 106.067 297.762 106.607C295.862 106.937 294.152 107.107 292.452 107.107C290.752 107.107 289.211 106.927 287.861 106.557C286.061 106.067 284.581 105.247 283.321 104.027C282.141 102.887 281.091 101.347 280.231 99.4567C279.431 97.7166 278.801 95.7364 278.351 93.5463C275.801 81.1155 270.971 70.0747 263.981 60.7141C257.88 52.5536 250.2 45.7231 241.14 40.4328C233.61 36.0425 225.309 32.7822 216.449 30.7521C210.069 29.292 203.499 28.522 197.438 28.522C196.598 28.522 195.758 28.542 194.948 28.572C194.048 28.592 192.308 28.642 189.908 28.822C186.708 29.062 183.368 29.452 179.988 29.9621C175.468 30.6521 170.958 31.5722 166.557 32.7022C161.137 34.0923 155.837 35.8024 150.807 37.7926C150.617 37.8626 150.437 37.9426 150.307 37.9926C150.177 38.0426 150.047 38.1126 149.917 38.1626C149.767 38.2326 149.597 38.3026 149.447 38.3826C149.317 38.4326 149.007 38.5926 149.007 38.5926C146.507 39.8427 143.047 41.4028 139.516 42.8829C134.856 44.833 130.216 46.6032 125.706 48.1333C120.306 49.9734 115.306 51.3835 110.866 52.3535C106.335 53.3436 102.475 53.8337 99.3751 53.8337H98.3751C98.1351 53.8337 97.8851 53.8336 97.635 53.8536C96.345 53.7736 95.055 53.7136 93.805 53.6936C93.285 53.6836 92.7449 53.6836 92.2249 53.6836C91.0649 53.6836 89.8848 53.7036 88.7447 53.7536C87.0447 53.8236 85.3246 53.9637 83.6346 54.1537C81.9145 54.3537 80.1845 54.6137 78.5044 54.9237C75.5743 55.4738 72.8143 56.5738 70.2942 58.2039C67.8941 59.754 65.824 61.7142 64.1239 64.0443C62.4439 66.3345 61.2039 68.8846 60.4239 71.6348C59.6238 74.455 59.3438 77.3652 59.6038 80.2854C59.8938 83.6656 60.8738 86.8658 62.5139 89.826C64.0839 92.6562 66.174 95.0864 68.7141 97.0565C71.2742 99.0367 74.1543 100.437 77.2744 101.227C79.0945 101.687 80.9845 101.917 82.8646 101.917C84.3146 101.917 85.7646 101.777 87.1947 101.507C88.2247 101.307 89.2748 101.157 90.3348 101.057C89.7448 102.907 89.1948 104.797 88.6947 106.707C87.9747 109.467 87.3547 112.308 86.8447 115.148C86.7547 115.668 86.6047 116.188 86.4047 116.678C86.2147 117.158 85.9847 117.608 85.7147 118.018C85.5347 118.288 85.3446 118.548 85.1346 118.788C85.1246 118.788 85.1046 118.788 85.0846 118.788C83.6746 118.988 81.7745 119.188 79.4444 119.358C77.4144 119.508 75.0943 119.648 72.3342 119.768C69.9541 119.878 67.654 119.958 65.684 120.038H65.554C64.234 120.088 62.9339 120.138 61.6739 120.178C60.3739 120.228 59.1138 120.278 57.8837 120.338C56.6137 120.398 55.3837 120.458 54.2136 120.538C53.0136 120.608 51.8735 120.688 50.7735 120.788C47.1434 121.048 43.3233 121.968 39.7231 123.438C35.683 125.088 32.0029 127.379 28.7728 130.239C25.0426 133.549 22.0525 137.509 19.8925 142C17.5424 146.92 16.2223 152.38 15.9923 158.231C15.5623 169.001 18.3524 179.102 24.2726 188.263C28.8828 195.393 35.433 201.924 43.7233 207.674C49.7435 211.844 56.8137 215.684 64.754 219.105C71.2042 221.885 76.8044 223.785 80.5145 225.045C80.5145 225.045 82.5245 225.735 82.8146 225.825C77.1844 241.866 69.3341 268.168 68.3241 292.63V292.81L68.3141 292.99C68.2941 294.73 68.2941 296.21 68.3141 297.66C68.3241 298.62 68.3841 299.58 68.4241 300.54H305.962V105.527Z" fill="#EFEFE7"/>
<path d="M105.925 140.979C105.925 140.979 106.165 142.34 106.725 144.45C107.295 146.57 108.175 149.43 109.475 152.44C110.775 155.45 112.475 158.611 114.685 161.301C116.885 163.991 119.585 166.221 122.865 167.371C126.145 168.521 128.565 171.862 129.776 176.132C130.986 180.392 130.996 185.592 129.456 190.443C127.925 195.293 124.835 199.803 119.885 202.704C114.925 205.614 108.085 206.914 99.0145 205.344C89.9542 203.774 81.6739 200.983 74.3537 197.443C67.0335 193.913 60.6832 189.643 55.443 185.132C50.2129 180.622 46.0927 175.872 43.2726 171.371C40.4525 166.871 38.9225 162.631 38.8525 159.131C38.7825 155.63 39.9826 152.97 42.0526 150.95C44.1227 148.93 47.0428 147.55 50.4229 146.6C53.803 145.65 57.6331 145.14 61.4932 144.87C65.3633 144.6 69.2635 144.56 72.7936 144.56C76.3238 144.56 80.1638 144.34 83.934 144C87.7041 143.67 91.4043 143.22 94.6644 142.77C97.9245 142.33 100.745 141.88 102.745 141.54C104.755 141.21 105.935 140.979 105.935 140.979H105.925Z" fill="#FFCE03"/>
<path d="M159.477 59.9844C159.477 59.9844 161.337 59.0243 164.658 57.8242C167.978 56.6241 172.768 55.184 178.618 54.224C184.468 53.2639 191.398 52.7839 198.989 53.5039C206.589 54.224 214.859 56.1441 223.41 59.9743C231.96 63.8046 238.09 68.835 242.78 74.4653C247.48 80.0957 250.73 86.3261 253.561 92.5765C256.381 98.8169 258.761 105.067 261.701 110.728C264.631 116.398 268.121 121.468 273.151 125.379C273.151 125.379 273.821 125.689 274.811 126.159C275.791 126.639 277.101 127.269 278.381 127.929C279.661 128.589 280.901 129.269 281.751 129.829C282.601 130.389 283.082 130.829 282.822 131.009C282.562 131.189 280.261 133.029 276.951 135.699C273.651 138.37 269.331 141.86 265.051 145.33C260.771 148.8 256.521 152.251 253.35 154.841C250.17 157.421 248.07 159.141 248.07 159.141C248.07 159.141 245.81 158.951 242.01 158.321C238.21 157.691 232.87 156.641 226.7 154.921C220.539 153.191 213.539 150.79 206.439 147.48C199.339 144.17 192.129 139.95 185.528 134.579C178.928 129.209 172.238 123.439 165.668 117.798C159.097 112.158 152.647 106.637 146.527 101.757C140.407 96.8768 134.607 92.6365 129.336 89.5463C124.066 86.4561 119.336 84.516 115.336 84.266C115.336 84.266 116.276 83.4959 118.126 82.1558C119.986 80.8158 122.766 78.9056 126.456 76.6155C130.146 74.3253 134.757 71.6751 140.257 68.835C145.757 66.0048 152.167 62.9945 159.457 60.0043L159.477 59.9844Z" fill="#FD73FD"/>
<path d="M166.896 149.05C166.896 150.99 166.507 152.82 165.797 154.5C165.097 156.18 164.067 157.69 162.797 158.95C161.537 160.21 160.016 161.241 158.346 161.951C156.676 162.661 154.836 163.051 152.896 163.051C150.956 163.051 149.126 162.661 147.446 161.951C145.776 161.241 144.256 160.22 142.996 158.95C141.736 157.69 140.706 156.17 139.996 154.5C139.286 152.83 138.896 150.99 138.896 149.05C138.896 147.11 139.286 145.28 139.996 143.599C140.706 141.929 141.726 140.409 142.996 139.149C144.256 137.889 145.776 136.859 147.446 136.149C149.116 135.439 150.956 135.049 152.896 135.049C154.836 135.049 156.666 135.439 158.346 136.149C160.016 136.859 161.537 137.879 162.797 139.149C164.057 140.409 165.087 141.929 165.797 143.599C166.507 145.27 166.896 147.11 166.896 149.05Z" fill="#003421"/>
<path d="M306.431 127.089C298.661 126.849 289.04 130.299 278.39 136.04C264.81 143.37 249.569 154.401 234.429 166.212C219.288 178.022 204.238 190.583 191.027 200.964C177.817 211.345 166.456 219.545 158.666 222.615C150.886 225.685 144.006 227.216 138.045 227.796C132.095 228.366 127.075 227.986 123.025 227.226C118.975 226.456 115.905 225.305 113.835 224.345C111.765 223.385 110.725 222.625 110.725 222.625C110.725 222.625 92.4239 256.748 94.514 300.68H306.421V127.099L306.431 127.089Z" fill="#FF73FF"/>
<path d="M305.962 119.057C304.002 119.227 302.072 119.467 300.182 119.838C293.891 120.958 288.701 120.708 284.431 119.547C280.161 118.387 276.791 116.307 274.161 113.747C271.521 111.197 269.591 108.167 268.19 105.097C266.79 102.026 265.91 98.9361 265.36 96.2659C263.07 85.0952 258.81 76.0646 253.4 68.8141C247.99 61.5736 241.43 56.1133 234.519 52.073C227.609 48.0327 220.349 45.4226 213.549 43.8625C206.748 42.3124 200.408 41.8023 195.338 42.0023C194.768 42.0023 193.228 42.0423 190.938 42.2223C188.648 42.4023 185.608 42.7024 182.028 43.2524C178.447 43.8024 174.327 44.5925 169.857 45.7326C165.397 46.8726 160.607 48.3628 155.707 50.3029C155.637 50.3329 155.577 50.3529 155.507 50.3829C155.437 50.4129 155.377 50.4329 155.307 50.4729C155.237 50.5129 155.177 50.5329 155.117 50.5629C155.047 50.5929 154.987 50.6229 154.917 50.6629C152.537 51.843 148.956 53.5031 144.646 55.3132C140.336 57.1233 135.286 59.0835 129.966 60.8936C124.646 62.6937 119.075 64.3438 113.685 65.5139C108.305 66.684 103.115 67.384 98.5948 67.294H98.3747C98.3247 67.294 98.2648 67.294 98.2248 67.294C98.1748 67.294 98.1248 67.304 98.0748 67.314C98.0247 67.314 97.9748 67.324 97.9248 67.334C97.8748 67.334 97.8248 67.344 97.7748 67.344C96.3747 67.234 94.9646 67.164 93.5646 67.134C92.1545 67.104 90.7545 67.124 89.3545 67.184C87.9544 67.244 86.5444 67.354 85.1443 67.514C83.7443 67.674 82.3442 67.884 80.9442 68.1441C79.6741 68.3841 78.5141 68.8541 77.4841 69.5242C76.4541 70.1942 75.564 71.0443 74.844 72.0243C74.124 73.0144 73.574 74.1245 73.234 75.3245C72.8939 76.5246 72.7639 77.7947 72.8739 79.0948C73.0039 80.5949 73.4439 81.985 74.1239 83.2151C74.804 84.4452 75.724 85.5052 76.814 86.3453C77.8941 87.1853 79.1541 87.8054 80.5042 88.1454C81.8542 88.4854 83.2943 88.5354 84.7543 88.2654C86.8844 87.8554 89.0144 87.6054 91.1245 87.4954C93.2346 87.3854 95.3347 87.4054 97.4047 87.5554C99.4748 87.7054 101.525 87.9754 103.555 88.3554C105.585 88.7354 107.585 89.2155 109.555 89.7955C108.415 91.8856 107.365 94.0358 106.395 96.2259C105.425 98.4161 104.535 100.686 103.745 103.006C102.945 105.327 102.235 107.687 101.595 110.117C100.965 112.537 100.425 115.017 99.9648 117.557C99.7048 118.977 99.3148 120.358 98.7948 121.668C98.2748 122.978 97.6347 124.228 96.8847 125.378C96.1347 126.538 95.2847 127.608 94.3346 128.568C93.3846 129.528 92.3445 130.368 91.2445 131.098C90.4145 131.498 88.9345 131.838 87.0544 132.108C85.1744 132.388 82.9043 132.608 80.4742 132.788C78.0441 132.968 75.464 133.108 72.9839 133.228C70.5039 133.348 68.1137 133.428 66.0637 133.498C64.7636 133.548 63.4836 133.598 62.2236 133.638C60.9635 133.688 59.7335 133.738 58.5335 133.798C57.3334 133.858 56.1733 133.918 55.0633 133.978C53.9433 134.048 52.8733 134.118 51.8432 134.208C49.6732 134.358 47.223 134.909 44.753 135.919C42.2929 136.929 39.8028 138.389 37.5827 140.369C35.3527 142.339 33.3726 144.829 31.9126 147.879C30.4425 150.93 29.5025 154.54 29.3325 158.77C28.9925 167.321 31.4125 174.641 35.4527 180.892C39.4928 187.132 45.153 192.312 51.2932 196.563C57.4334 200.813 64.0536 204.143 70.0238 206.713C75.984 209.283 81.2942 211.084 84.8143 212.274L85.1843 212.404L85.5544 212.534L85.9244 212.664L86.2944 212.794C87.6444 213.264 88.9644 213.674 90.2445 214.034C91.5245 214.394 92.7746 214.704 93.9846 214.974C95.1947 215.244 96.3747 215.464 97.5247 215.644C98.6648 215.824 99.7849 215.964 100.865 216.064C100.865 216.064 83.1542 257.397 81.6842 293.199C81.6642 294.579 81.6542 295.999 81.6842 297.469C81.7042 298.479 81.7242 299.519 81.7642 300.57H101.955C101.685 294.159 101.935 288.599 102.355 284.228C102.945 278.048 103.855 274.228 103.995 273.658C104.005 273.598 104.025 273.528 104.045 273.458C104.065 273.388 104.075 273.328 104.095 273.258C104.105 273.188 104.125 273.128 104.135 273.058C104.145 272.988 104.165 272.928 104.165 272.858C104.175 272.788 104.395 271.588 104.815 269.537C105.235 267.477 105.875 264.577 106.735 261.087C107.595 257.597 108.685 253.526 109.995 249.146C111.315 244.766 112.865 240.076 114.655 235.345C116.705 236.005 118.725 236.565 120.716 237.035C122.706 237.505 124.676 237.885 126.606 238.185C128.546 238.485 130.446 238.705 132.316 238.845C134.186 238.985 136.026 239.055 137.816 239.055C144.526 239.055 150.727 238.135 156.307 236.735C161.887 235.325 166.847 233.425 171.047 231.455C175.247 229.485 178.697 227.445 181.268 225.755C183.838 224.064 185.528 222.734 186.218 222.164L210.289 204.033L234.359 185.902L258.43 167.771L282.501 149.639C282.501 149.639 283.171 149.149 284.261 148.449C285.351 147.749 286.901 146.789 288.781 145.759C290.661 144.729 292.871 143.639 295.291 142.649C297.701 141.659 300.311 140.789 302.992 140.209C303.042 140.209 303.102 140.199 303.162 140.179C303.212 140.179 303.272 140.169 303.332 140.159C303.382 140.159 303.442 140.149 303.502 140.139C303.562 140.129 303.612 140.129 303.672 140.109C303.712 140.109 303.762 140.089 303.802 140.079C303.842 140.069 303.882 140.049 303.922 140.039L304.042 139.999C304.042 139.999 304.122 139.969 304.162 139.969C304.762 139.859 305.372 139.779 305.982 139.699V119.097L305.962 119.057ZM118.105 186.382C118.055 186.892 117.985 187.392 117.875 187.862C117.765 188.332 117.625 188.792 117.455 189.232C117.285 189.672 117.075 190.092 116.845 190.492C116.605 190.892 116.335 191.282 116.035 191.652C116.025 191.662 116.005 191.682 115.995 191.702C115.985 191.722 115.965 191.732 115.955 191.752C115.945 191.762 115.925 191.782 115.915 191.802C115.905 191.812 115.885 191.832 115.875 191.852C115.775 191.972 115.675 192.082 115.565 192.192C115.455 192.312 115.345 192.412 115.245 192.522C115.135 192.632 115.015 192.742 114.905 192.852C114.785 192.962 114.665 193.062 114.535 193.162C114.415 193.262 114.335 193.322 114.275 193.362C114.215 193.412 114.165 193.432 114.135 193.462C114.105 193.492 114.065 193.512 114.035 193.542C114.005 193.572 113.955 193.622 113.895 193.702C113.595 193.902 112.985 194.272 112.025 194.652C111.065 195.023 109.745 195.393 108.045 195.583C106.345 195.783 104.245 195.803 101.725 195.483C99.2048 195.163 96.2447 194.492 92.8346 193.312V193.332L92.4246 193.192L92.0246 193.052L91.6245 192.912L91.2245 192.772C84.1943 190.382 78.0441 187.892 72.7839 185.312C67.5238 182.722 63.1436 180.042 59.6735 177.271C56.1934 174.501 53.6133 171.631 51.9332 168.681C50.2531 165.721 49.4631 162.69 49.5932 159.57C49.6032 159.21 49.6231 158.75 49.7031 158.26C49.7731 157.77 49.9132 157.25 50.1632 156.76C50.4132 156.27 50.7732 155.8 51.2932 155.43C51.8132 155.06 52.5133 154.78 53.4233 154.65C54.3633 154.57 55.3533 154.5 56.3934 154.44C57.4334 154.38 58.5234 154.32 59.6535 154.27C60.7835 154.22 61.9435 154.17 63.1336 154.13C64.3236 154.08 65.5337 154.04 66.7737 153.99C70.7139 153.85 74.334 153.7 77.6441 153.52C80.9542 153.34 83.9643 153.1 86.6844 152.8C89.4144 152.49 91.8546 152.11 94.0246 151.6C96.1947 151.1 98.1148 150.47 99.7848 149.689C100.165 150.9 100.595 152.12 101.105 153.33C101.605 154.54 102.175 155.74 102.815 156.93C103.455 158.12 104.165 159.3 104.965 160.46C105.755 161.62 106.625 162.75 107.585 163.86C110.055 166.731 111.965 169.351 113.445 171.721C114.915 174.101 115.965 176.221 116.685 178.111C117.405 179.992 117.805 181.622 118.015 183.002C118.215 184.382 118.225 185.512 118.145 186.382H118.105ZM212.899 176.451L199.908 186.232L186.918 196.013L173.927 205.793C173.927 205.793 173.857 205.843 173.817 205.883C173.777 205.913 173.737 205.943 173.697 205.983C173.657 206.023 173.617 206.043 173.587 206.083C173.547 206.113 173.517 206.143 173.477 206.173C173.237 206.373 171.747 207.593 169.207 209.193C166.667 210.784 163.087 212.764 158.657 214.474C154.227 216.194 148.936 217.634 142.986 218.184C137.046 218.734 130.446 218.384 123.396 216.484C124.006 215.414 124.636 214.374 125.276 213.344C125.926 212.324 126.586 211.324 127.256 210.354C127.926 209.383 128.626 208.443 129.326 207.533C130.036 206.623 130.756 205.753 131.496 204.913C131.496 204.913 131.496 204.903 131.506 204.893C131.506 204.893 131.506 204.883 131.516 204.873C131.516 204.873 131.516 204.863 131.526 204.853C131.526 204.853 131.526 204.843 131.536 204.833C132.496 203.663 133.366 202.423 134.136 201.123C134.906 199.833 135.576 198.473 136.146 197.073C136.716 195.673 137.176 194.222 137.536 192.732C137.896 191.242 138.146 189.712 138.276 188.162C138.446 186.102 138.446 183.732 138.136 181.082C137.816 178.421 137.176 175.491 136.086 172.301C134.986 169.111 133.426 165.671 131.266 162C129.096 158.34 126.326 154.45 122.816 150.37C122.106 149.549 121.496 148.679 120.966 147.779C120.436 146.879 119.986 145.959 119.616 145.009C119.235 144.059 118.935 143.099 118.695 142.129C118.455 141.159 118.275 140.189 118.135 139.219C118.135 139.219 117.985 138.529 117.885 137.209C117.785 135.889 117.715 133.938 117.885 131.418V131.448C118.045 128.918 118.445 125.828 119.265 122.208C120.085 118.587 121.316 114.457 123.166 109.867C123.676 108.467 124.186 107.157 124.656 105.947C125.136 104.746 125.596 103.656 126.006 102.696C126.416 101.746 126.786 100.916 127.096 100.256C127.396 99.5961 127.646 99.0961 127.796 98.7761C127.826 98.7261 127.866 98.6561 127.896 98.6061C127.926 98.5561 127.966 98.4961 128.006 98.4461C128.036 98.3961 128.076 98.3361 128.116 98.2861C128.146 98.2361 128.186 98.1761 128.216 98.1161C132.306 100.556 136.106 103.206 139.536 105.857C142.966 108.507 146.026 111.147 148.646 113.567C151.267 115.987 153.437 118.167 155.077 119.918C156.727 121.658 157.847 122.948 158.377 123.568C158.377 123.568 160.347 125.738 163.877 129.138C167.397 132.528 172.467 137.139 178.657 142.019C184.848 146.889 192.158 152.02 200.178 156.46C208.188 160.89 216.899 164.62 225.879 166.701L212.889 176.481L212.899 176.451ZM264.3 137.759L260.26 140.799L256.22 143.839L252.18 146.879H252.1C252.1 146.879 252.05 146.879 252.03 146.879C252 146.879 251.98 146.879 251.96 146.879C251.94 146.879 251.91 146.879 251.88 146.879C240.679 147.739 230.249 145.929 220.889 142.739C211.539 139.549 203.268 134.969 196.398 130.278C189.528 125.598 184.058 120.798 180.298 117.177C176.547 113.557 174.507 111.107 174.507 111.107C172.567 108.707 170.257 106.147 167.627 103.516C165.007 100.876 162.067 98.1761 158.857 95.4859C155.657 92.7957 152.187 90.1155 148.496 87.5454C144.816 84.9752 140.916 82.505 136.846 80.2349C140.206 79.0948 143.396 77.9047 146.336 76.7546V76.7246C149.266 75.5746 151.957 74.4645 154.287 73.4644C156.617 72.4644 158.617 71.5643 160.167 70.8542C161.717 70.1442 162.827 69.6042 163.417 69.3142C167.607 67.674 171.707 66.434 175.497 65.4939C179.287 64.5538 182.768 63.9138 185.728 63.4838C188.688 63.0437 191.128 62.8237 192.838 62.7037C194.548 62.5837 195.518 62.5737 195.558 62.5737H195.908C196.328 62.5637 199.148 62.4937 203.248 63.0137C207.348 63.5338 212.739 64.6238 218.329 66.944C223.909 69.2641 229.699 72.7844 234.589 78.1647C239.469 83.5451 243.46 90.7656 245.45 100.476C246.34 104.836 247.56 108.787 249.04 112.347C250.53 115.907 252.28 119.077 254.26 121.898C256.23 124.708 258.42 127.168 260.79 129.298C263.15 131.428 265.68 133.238 268.32 134.738L264.28 137.779L264.3 137.759Z" fill="#003421"/>
</g>
</svg>
